<svg width="626" height="424" xmlns="http://www.w3.org/2000/svg" xmlns:xlink="http://www.w3.org/1999/xlink" overflow="hidden"><defs><clipPath id="clip0"><rect x="327" y="129" width="626" height="424"/></clipPath><clipPath id="clip1"><rect x="328" y="168" width="624" height="384"/></clipPath><clipPath id="clip2"><rect x="328" y="168" width="624" height="384"/></clipPath><clipPath id="clip3"><rect x="328" y="168" width="624" height="384"/></clipPath><clipPath id="clip4"><rect x="328" y="168" width="624" height="384"/></clipPath><clipPath id="clip5"><rect x="381" y="175" width="422" height="294"/></clipPath><clipPath id="clip6"><rect x="328" y="168" width="624" height="384"/></clipPath></defs><g clip-path="url(#clip0)" transform="translate(-327 -129)"><rect x="328.5" y="130.5" width="624" height="422" stroke="#FFFFFF" stroke-width="1.33333" stroke-miterlimit="8" fill="#FFFFFF"/><g clip-path="url(#clip1)"><g clip-path="url(#clip2)"><g clip-path="url(#clip3)"><path d="M328 168 952 168 952 552 328 552Z" fill="#FFFFFF"/><g clip-path="url(#clip4)"><path d="M328 168 952 168 952 552 328 552Z" stroke="#FFFFFF" stroke-width="1.42667" stroke-linecap="round" stroke-linejoin="round" stroke-miterlimit="10" fill="#FFFFFF"/></g><g clip-path="url(#clip5)"><path d="M381.973 175.307 802.933 175.307 802.933 468.907 381.973 468.907Z" fill="#EBEBEB"/><path d="M381.973 421.253 802.933 421.253" stroke="#FFFFFF" stroke-width="0.706667" stroke-linejoin="round" stroke-miterlimit="10" fill="none"/><path d="M381.973 352.653 802.933 352.653" stroke="#FFFFFF" stroke-width="0.706667" stroke-linejoin="round" stroke-miterlimit="10" fill="none"/><path d="M381.973 284.067 802.933 284.067" stroke="#FFFFFF" stroke-width="0.706667" stroke-linejoin="round" stroke-miterlimit="10" fill="none"/><path d="M381.973 215.467 802.933 215.467" stroke="#FFFFFF" stroke-width="0.706667" stroke-linejoin="round" stroke-miterlimit="10" fill="none"/><path d="M381.973 455.56 802.933 455.56" stroke="#FFFFFF" stroke-width="1.42667" stroke-linejoin="round" stroke-miterlimit="10" fill="none"/><path d="M381.973 386.96 802.933 386.96" stroke="#FFFFFF" stroke-width="1.42667" stroke-linejoin="round" stroke-miterlimit="10" fill="none"/><path d="M381.973 318.36 802.933 318.36" stroke="#FFFFFF" stroke-width="1.42667" stroke-linejoin="round" stroke-miterlimit="10" fill="none"/><path d="M381.973 249.76 802.933 249.76" stroke="#FFFFFF" stroke-width="1.42667" stroke-linejoin="round" stroke-miterlimit="10" fill="none"/><path d="M381.973 181.16 802.933 181.16" stroke="#FFFFFF" stroke-width="1.42667" stroke-linejoin="round" stroke-miterlimit="10" fill="none"/><path d="M391.613 468.907 391.613 175.307" stroke="#FFFFFF" stroke-width="1.42667" stroke-linejoin="round" stroke-miterlimit="10" fill="none"/><path d="M407.68 468.907 407.68 175.307" stroke="#FFFFFF" stroke-width="1.42667" stroke-linejoin="round" stroke-miterlimit="10" fill="none"/><path d="M423.747 468.907 423.747 175.307" stroke="#FFFFFF" stroke-width="1.42667" stroke-linejoin="round" stroke-miterlimit="10" fill="none"/><path d="M439.813 468.907 439.813 175.307" stroke="#FFFFFF" stroke-width="1.42667" stroke-linejoin="round" stroke-miterlimit="10" fill="none"/><path d="M455.88 468.907 455.88 175.307" stroke="#FFFFFF" stroke-width="1.42667" stroke-linejoin="round" stroke-miterlimit="10" fill="none"/><path d="M471.947 468.907 471.947 175.307" stroke="#FFFFFF" stroke-width="1.42667" stroke-linejoin="round" stroke-miterlimit="10" fill="none"/><path d="M488.013 468.907 488.013 175.307" stroke="#FFFFFF" stroke-width="1.42667" stroke-linejoin="round" stroke-miterlimit="10" fill="none"/><path d="M504.093 468.907 504.093 175.307" stroke="#FFFFFF" stroke-width="1.42667" stroke-linejoin="round" stroke-miterlimit="10" fill="none"/><path d="M520.16 468.907 520.16 175.307" stroke="#FFFFFF" stroke-width="1.42667" stroke-linejoin="round" stroke-miterlimit="10" fill="none"/><path d="M536.227 468.907 536.227 175.307" stroke="#FFFFFF" stroke-width="1.42667" stroke-linejoin="round" stroke-miterlimit="10" fill="none"/><path d="M552.293 468.907 552.293 175.307" stroke="#FFFFFF" stroke-width="1.42667" stroke-linejoin="round" stroke-miterlimit="10" fill="none"/><path d="M568.36 468.907 568.36 175.307" stroke="#FFFFFF" stroke-width="1.42667" stroke-linejoin="round" stroke-miterlimit="10" fill="none"/><path d="M584.427 468.907 584.427 175.307" stroke="#FFFFFF" stroke-width="1.42667" stroke-linejoin="round" stroke-miterlimit="10" fill="none"/><path d="M600.493 468.907 600.493 175.307" stroke="#FFFFFF" stroke-width="1.42667" stroke-linejoin="round" stroke-miterlimit="10" fill="none"/><path d="M616.56 468.907 616.56 175.307" stroke="#FFFFFF" stroke-width="1.42667" stroke-linejoin="round" stroke-miterlimit="10" fill="none"/><path d="M632.627 468.907 632.627 175.307" stroke="#FFFFFF" stroke-width="1.42667" stroke-linejoin="round" stroke-miterlimit="10" fill="none"/><path d="M648.693 468.907 648.693 175.307" stroke="#FFFFFF" stroke-width="1.42667" stroke-linejoin="round" stroke-miterlimit="10" fill="none"/><path d="M664.76 468.907 664.76 175.307" stroke="#FFFFFF" stroke-width="1.42667" stroke-linejoin="round" stroke-miterlimit="10" fill="none"/><path d="M680.827 468.907 680.827 175.307" stroke="#FFFFFF" stroke-width="1.42667" stroke-linejoin="round" stroke-miterlimit="10" fill="none"/><path d="M696.893 468.907 696.893 175.307" stroke="#FFFFFF" stroke-width="1.42667" stroke-linejoin="round" stroke-miterlimit="10" fill="none"/><path d="M712.96 468.907 712.96 175.307" stroke="#FFFFFF" stroke-width="1.42667" stroke-linejoin="round" stroke-miterlimit="10" fill="none"/><path d="M729.027 468.907 729.027 175.307" stroke="#FFFFFF" stroke-width="1.42667" stroke-linejoin="round" stroke-miterlimit="10" fill="none"/><path d="M745.093 468.907 745.093 175.307" stroke="#FFFFFF" stroke-width="1.42667" stroke-linejoin="round" stroke-miterlimit="10" fill="none"/><path d="M761.16 468.907 761.16 175.307" stroke="#FFFFFF" stroke-width="1.42667" stroke-linejoin="round" stroke-miterlimit="10" fill="none"/><path d="M777.227 468.907 777.227 175.307" stroke="#FFFFFF" stroke-width="1.42667" stroke-linejoin="round" stroke-miterlimit="10" fill="none"/><path d="M793.293 468.907 793.293 175.307" stroke="#FFFFFF" stroke-width="1.42667" stroke-linejoin="round" stroke-miterlimit="10" fill="none"/><path d="M384.387 211.173 398.853 211.173 398.853 420.627 384.387 420.627Z" fill="#00798C"/><path d="M384.387 436.16 398.853 436.16 398.853 439.253 384.387 439.253Z" fill="#66A182"/><path d="M384.387 420.64 398.853 420.64 398.853 436.16 384.387 436.16Z" fill="#EDAE49"/><path d="M384.387 447.067 398.853 447.067 398.853 451.427 384.387 451.427Z" fill="#8D96A3"/><path d="M384.387 210.52 398.853 210.52 398.853 211.173 384.387 211.173Z" fill="#D1495B"/><path d="M384.387 439.253 398.853 439.253 398.853 447.067 384.387 447.067Z" fill="#2E4057"/><path d="M384.387 453.32 398.853 453.32 398.853 455.547 384.387 455.547Z" fill="#2980B9"/><path d="M384.387 451.413 398.853 451.413 398.853 453.32 384.387 453.32Z" fill="#8E44AD"/><path d="M400.453 245.693 414.92 245.693 414.92 435.333 400.453 435.333Z" fill="#00798C"/><path d="M400.453 443.867 414.92 443.867 414.92 445.507 400.453 445.507Z" fill="#66A182"/><path d="M400.453 435.32 414.92 435.32 414.92 443.853 400.453 443.853Z" fill="#EDAE49"/><path d="M400.453 451.56 414.92 451.56 414.92 451.615 400.453 451.615Z" fill="#8D96A3"/><path d="M400.453 245.6 414.92 245.6 414.92 245.695 400.453 245.695Z" fill="#D1495B"/><path d="M400.453 445.507 414.92 445.507 414.92 451.56 400.453 451.56Z" fill="#2E4057"/><path d="M400.453 453.267 414.92 453.267 414.92 455.56 400.453 455.56Z" fill="#2980B9"/><path d="M400.453 451.613 414.92 451.613 414.92 453.267 400.453 453.267Z" fill="#8E44AD"/><path d="M416.52 251.267 430.987 251.267 430.987 432.12 416.52 432.12Z" fill="#00798C"/><path d="M416.52 449.053 430.987 449.053 430.987 450.32 416.52 450.32Z" fill="#66A182"/><path d="M416.52 432.12 430.987 432.12 430.987 449.053 416.52 449.053Z" fill="#EDAE49"/><path d="M416.52 452.573 430.987 452.573 430.987 453.213 416.52 453.213Z" fill="#8D96A3"/><path d="M416.52 245.76 430.987 245.76 430.987 251.267 416.52 251.267Z" fill="#D1495B"/><path d="M416.52 450.307 430.987 450.307 430.987 452.573 416.52 452.573Z" fill="#2E4057"/><path d="M416.52 455.253 430.987 455.253 430.987 455.56 416.52 455.56Z" fill="#2980B9"/><path d="M416.52 453.213 430.987 453.213 430.987 455.253 416.52 455.253Z" fill="#8E44AD"/><path d="M432.587 225.213 447.053 225.213 447.053 435.693 432.587 435.693Z" fill="#00798C"/><path d="M432.587 444.587 447.053 444.587 447.053 445.387 432.587 445.387Z" fill="#66A182"/><path d="M432.587 435.693 447.053 435.693 447.053 444.587 432.587 444.587Z" fill="#EDAE49"/><path d="M432.587 450.2 447.053 450.2 447.053 451.067 432.587 451.067Z" fill="#8D96A3"/><path d="M432.587 224.667 447.053 224.667 447.053 225.2 432.587 225.2Z" fill="#D1495B"/><path d="M432.587 445.4 447.053 445.4 447.053 450.2 432.587 450.2Z" fill="#2E4057"/><path d="M432.587 453.827 447.053 453.827 447.053 455.56 432.587 455.56Z" fill="#2980B9"/><path d="M432.587 451.067 447.053 451.067 447.053 453.827 432.587 453.827Z" fill="#8E44AD"/><path d="M448.653 324.427 463.12 324.427 463.12 435.347 448.653 435.347Z" fill="#00798C"/><path d="M448.653 440.373 463.12 440.373 463.12 444.867 448.653 444.867Z" fill="#66A182"/><path d="M448.653 435.347 463.12 435.347 463.12 440.373 448.653 440.373Z" fill="#EDAE49"/><path d="M448.653 447.067 463.12 447.067 463.12 448.747 448.653 448.747Z" fill="#8D96A3"/><path d="M448.653 247.333 463.12 247.333 463.12 324.427 448.653 324.427Z" fill="#D1495B"/><path d="M448.653 444.867 463.12 444.867 463.12 447.08 448.653 447.08Z" fill="#2E4057"/><path d="M448.653 454.227 463.12 454.227 463.12 455.547 448.653 455.547Z" fill="#2980B9"/><path d="M448.653 448.76 463.12 448.76 463.12 454.24 448.653 454.24Z" fill="#8E44AD"/><path d="M464.72 190.253 479.187 190.253 479.187 430.133 464.72 430.133Z" fill="#00798C"/><path d="M464.72 439.28 479.187 439.28 479.187 440.613 464.72 440.613Z" fill="#66A182"/><path d="M464.72 430.133 479.187 430.133 479.187 439.28 464.72 439.28Z" fill="#EDAE49"/><path d="M464.72 451.707 479.187 451.707 479.187 453.467 464.72 453.467Z" fill="#8D96A3"/><path d="M464.72 190.24 479.187 190.24 479.187 190.251 464.72 190.251Z" fill="#D1495B"/><path d="M464.72 440.613 479.187 440.613 479.187 451.707 464.72 451.707Z" fill="#2E4057"/><path d="M464.72 454.28 479.187 454.28 479.187 455.547 464.72 455.547Z" fill="#2980B9"/><path d="M464.72 453.467 479.187 453.467 479.187 454.293 464.72 454.293Z" fill="#8E44AD"/><path d="M480.787 196.84 495.253 196.84 495.253 431.147 480.787 431.147Z" fill="#00798C"/><path d="M480.787 443.253 495.253 443.253 495.253 444.267 480.787 444.267Z" fill="#66A182"/><path d="M480.787 431.147 495.253 431.147 495.253 443.253 480.787 443.253Z" fill="#EDAE49"/><path d="M480.787 453.093 495.253 453.093 495.253 453.427 480.787 453.427Z" fill="#8D96A3"/><path d="M480.787 196.533 495.253 196.533 495.253 196.84 480.787 196.84Z" fill="#D1495B"/><path d="M480.787 444.267 495.253 444.267 495.253 453.08 480.787 453.08Z" fill="#2E4057"/><path d="M480.787 455.013 495.253 455.013 495.253 455.56 480.787 455.56Z" fill="#2980B9"/><path d="M480.787 453.413 495.253 453.413 495.253 455.013 480.787 455.013Z" fill="#8E44AD"/><path d="M496.853 199.227 511.32 199.227 511.32 428.333 496.853 428.333Z" fill="#00798C"/><path d="M496.853 448.773 511.32 448.773 511.32 450.387 496.853 450.387Z" fill="#66A182"/><path d="M496.853 428.333 511.32 428.333 511.32 448.773 496.853 448.773Z" fill="#EDAE49"/><path d="M496.853 453.013 511.32 453.013 511.32 453.213 496.853 453.213Z" fill="#8D96A3"/><path d="M496.853 197.96 511.32 197.96 511.32 199.24 496.853 199.24Z" fill="#D1495B"/><path d="M496.853 450.387 511.32 450.387 511.32 453.013 496.853 453.013Z" fill="#2E4057"/><path d="M496.853 454.56 511.32 454.56 511.32 455.56 496.853 455.56Z" fill="#2980B9"/><path d="M496.853 453.2 511.32 453.2 511.32 454.56 496.853 454.56Z" fill="#8E44AD"/><path d="M512.92 192.12 527.387 192.12 527.387 427.88 512.92 427.88Z" fill="#00798C"/><path d="M512.92 439.08 527.387 439.08 527.387 442.027 512.92 442.027Z" fill="#66A182"/><path d="M512.92 427.88 527.387 427.88 527.387 439.093 512.92 439.093Z" fill="#EDAE49"/><path d="M512.92 446.64 527.387 446.64 527.387 448.013 512.92 448.013Z" fill="#8D96A3"/><path d="M512.92 189.573 527.387 189.573 527.387 192.12 512.92 192.12Z" fill="#D1495B"/><path d="M512.92 442.027 527.387 442.027 527.387 446.627 512.92 446.627Z" fill="#2E4057"/><path d="M512.92 453.453 527.387 453.453 527.387 455.547 512.92 455.547Z" fill="#2980B9"/><path d="M512.92 448 527.387 448 527.387 453.453 512.92 453.453Z" fill="#8E44AD"/><path d="M528.987 191.107 543.453 191.107 543.453 428.347 528.987 428.347Z" fill="#00798C"/><path d="M528.987 446.16 543.453 446.16 543.453 446.84 528.987 446.84Z" fill="#66A182"/><path d="M528.987 428.347 543.453 428.347 543.453 446.16 528.987 446.16Z" fill="#EDAE49"/><path d="M528.987 453.48 543.453 453.48 543.453 453.667 528.987 453.667Z" fill="#8D96A3"/><path d="M528.987 189.107 543.453 189.107 543.453 191.107 528.987 191.107Z" fill="#D1495B"/><path d="M528.987 446.84 543.453 446.84 543.453 453.48 528.987 453.48Z" fill="#2E4057"/><path d="M528.987 455.093 543.453 455.093 543.453 455.547 528.987 455.547Z" fill="#2980B9"/><path d="M528.987 453.667 543.453 453.667 543.453 455.093 528.987 455.093Z" fill="#8E44AD"/><path d="M545.053 189.667 559.52 189.667 559.52 433.253 545.053 433.253Z" fill="#00798C"/><path d="M545.053 437.067 559.52 437.067 559.52 438.373 545.053 438.373Z" fill="#66A182"/><path d="M545.053 433.267 559.52 433.267 559.52 437.08 545.053 437.08Z" fill="#EDAE49"/><path d="M545.053 450.093 559.52 450.093 559.52 452.973 545.053 452.973Z" fill="#8D96A3"/><path d="M545.053 189.373 559.52 189.373 559.52 189.667 545.053 189.667Z" fill="#D1495B"/><path d="M545.053 438.373 559.52 438.373 559.52 450.093 545.053 450.093Z" fill="#2E4057"/><path d="M545.053 454.587 559.52 454.587 559.52 455.56 545.053 455.56Z" fill="#2980B9"/><path d="M545.053 452.973 559.52 452.973 559.52 454.587 545.053 454.587Z" fill="#8E44AD"/><path d="M561.12 197.813 575.587 197.813 575.587 432.107 561.12 432.107Z" fill="#00798C"/><path d="M561.12 449.587 575.587 449.587 575.587 450.12 561.12 450.12Z" fill="#66A182"/><path d="M561.12 432.107 575.587 432.107 575.587 449.587 561.12 449.587Z" fill="#EDAE49"/><path d="M561.12 452.64 575.587 452.64 575.587 454.547 561.12 454.547Z" fill="#8D96A3"/><path d="M561.12 197.56 575.587 197.56 575.587 197.827 561.12 197.827Z" fill="#D1495B"/><path d="M561.12 450.12 575.587 450.12 575.587 452.64 561.12 452.64Z" fill="#2E4057"/><path d="M561.12 455.547 575.587 455.547 575.587 455.554 561.12 455.554Z" fill="#2980B9"/><path d="M561.12 454.56 575.587 454.56 575.587 455.547 561.12 455.547Z" fill="#8E44AD"/><path d="M577.2 196.333 591.667 196.333 591.667 424.48 577.2 424.48Z" fill="#00798C"/><path d="M577.2 436.587 591.667 436.587 591.667 439.067 577.2 439.067Z" fill="#66A182"/><path d="M577.2 424.467 591.667 424.467 591.667 436.587 577.2 436.587Z" fill="#EDAE49"/><path d="M577.2 446.68 591.667 446.68 591.667 447.12 577.2 447.12Z" fill="#8D96A3"/><path d="M577.2 196.307 591.667 196.307 591.667 196.321 577.2 196.321Z" fill="#D1495B"/><path d="M577.2 439.08 591.667 439.08 591.667 446.68 577.2 446.68Z" fill="#2E4057"/><path d="M577.2 449.987 591.667 449.987 591.667 455.56 577.2 455.56Z" fill="#2980B9"/><path d="M577.2 447.12 591.667 447.12 591.667 449.987 577.2 449.987Z" fill="#8E44AD"/><path d="M593.267 218.613 607.733 218.613 607.733 385.693 593.267 385.693Z" fill="#00798C"/><path d="M593.267 408.013 607.733 408.013 607.733 413.067 593.267 413.067Z" fill="#66A182"/><path d="M593.267 385.68 607.733 385.68 607.733 408.013 593.267 408.013Z" fill="#EDAE49"/><path d="M593.267 448.013 607.733 448.013 607.733 450.427 593.267 450.427Z" fill="#8D96A3"/><path d="M593.267 207.16 607.733 207.16 607.733 218.613 593.267 218.613Z" fill="#D1495B"/><path d="M593.267 413.08 607.733 413.08 607.733 448.013 593.267 448.013Z" fill="#2E4057"/><path d="M593.267 453.227 607.733 453.227 607.733 455.56 593.267 455.56Z" fill="#2980B9"/><path d="M593.267 450.427 607.733 450.427 607.733 453.227 593.267 453.227Z" fill="#8E44AD"/><path d="M609.333 192.96 623.8 192.96 623.8 417.947 609.333 417.947Z" fill="#00798C"/><path d="M609.333 433.493 623.8 433.493 623.8 435.24 609.333 435.24Z" fill="#66A182"/><path d="M609.333 417.933 623.8 417.933 623.8 433.493 609.333 433.493Z" fill="#EDAE49"/><path d="M609.333 443.4 623.8 443.4 623.8 445 609.333 445Z" fill="#8D96A3"/><path d="M609.333 191.253 623.8 191.253 623.8 192.96 609.333 192.96Z" fill="#D1495B"/><path d="M609.333 435.24 623.8 435.24 623.8 443.4 609.333 443.4Z" fill="#2E4057"/><path d="M609.333 453.013 623.8 453.013 623.8 455.56 609.333 455.56Z" fill="#2980B9"/><path d="M609.333 445 623.8 445 623.8 453.013 609.333 453.013Z" fill="#8E44AD"/><path d="M625.4 192.507 639.867 192.507 639.867 426.6 625.4 426.6Z" fill="#00798C"/><path d="M625.4 436.867 639.867 436.867 639.867 439.907 625.4 439.907Z" fill="#66A182"/><path d="M625.4 426.587 639.867 426.587 639.867 436.867 625.4 436.867Z" fill="#EDAE49"/><path d="M625.4 444.667 639.867 444.667 639.867 446.347 625.4 446.347Z" fill="#8D96A3"/><path d="M625.4 192.48 639.867 192.48 639.867 192.507 625.4 192.507Z" fill="#D1495B"/><path d="M625.4 439.92 639.867 439.92 639.867 444.667 625.4 444.667Z" fill="#2E4057"/><path d="M625.4 452.653 639.867 452.653 639.867 455.547 625.4 455.547Z" fill="#2980B9"/><path d="M625.4 446.347 639.867 446.347 639.867 452.667 625.4 452.667Z" fill="#8E44AD"/><path d="M641.467 218.68 655.933 218.68 655.933 400.493 641.467 400.493Z" fill="#00798C"/><path d="M641.467 415.093 655.933 415.093 655.933 417.173 641.467 417.173Z" fill="#66A182"/><path d="M641.467 400.493 655.933 400.493 655.933 415.093 641.467 415.093Z" fill="#EDAE49"/><path d="M641.467 435.213 655.933 435.213 655.933 452.467 641.467 452.467Z" fill="#8D96A3"/><path d="M641.467 217.493 655.933 217.493 655.933 218.693 641.467 218.693Z" fill="#D1495B"/><path d="M641.467 417.173 655.933 417.173 655.933 435.213 641.467 435.213Z" fill="#2E4057"/><path d="M641.467 452.467 655.933 452.467 655.933 455.547 641.467 455.547Z" fill="#8E44AD"/><path d="M657.533 202.667 672 202.667 672 432.16 657.533 432.16Z" fill="#00798C"/><path d="M657.533 446.453 672 446.453 672 448.053 657.533 448.053Z" fill="#66A182"/><path d="M657.533 432.173 672 432.173 672 446.467 657.533 446.467Z" fill="#EDAE49"/><path d="M657.533 452.107 672 452.107 672 452.493 657.533 452.493Z" fill="#8D96A3"/><path d="M657.533 201.48 672 201.48 672 202.667 657.533 202.667Z" fill="#D1495B"/><path d="M657.533 448.053 672 448.053 672 452.107 657.533 452.107Z" fill="#2E4057"/><path d="M657.533 455.293 672 455.293 672 455.56 657.533 455.56Z" fill="#2980B9"/><path d="M657.533 452.493 672 452.493 672 455.293 657.533 455.293Z" fill="#8E44AD"/><path d="M673.6 197.507 688.067 197.507 688.067 416.16 673.6 416.16Z" fill="#00798C"/><path d="M673.6 438.093 688.067 438.093 688.067 440.547 673.6 440.547Z" fill="#66A182"/><path d="M673.6 416.16 688.067 416.16 688.067 438.093 673.6 438.093Z" fill="#EDAE49"/><path d="M673.6 448.72 688.067 448.72 688.067 451.187 673.6 451.187Z" fill="#8D96A3"/><path d="M673.6 197.493 688.067 197.493 688.067 197.515 673.6 197.515Z" fill="#D1495B"/><path d="M673.6 440.547 688.067 440.547 688.067 448.733 673.6 448.733Z" fill="#2E4057"/><path d="M673.6 453.733 688.067 453.733 688.067 455.56 673.6 455.56Z" fill="#2980B9"/><path d="M673.6 451.187 688.067 451.187 688.067 453.733 673.6 453.733Z" fill="#8E44AD"/><path d="M689.667 198.613 704.133 198.613 704.133 434.773 689.667 434.773Z" fill="#00798C"/><path d="M689.667 443.92 704.133 443.92 704.133 444.213 689.667 444.213Z" fill="#66A182"/><path d="M689.667 434.773 704.133 434.773 704.133 443.92 689.667 443.92Z" fill="#EDAE49"/><path d="M689.667 449.64 704.133 449.64 704.133 451.893 689.667 451.893Z" fill="#8D96A3"/><path d="M689.667 198.56 704.133 198.56 704.133 198.616 689.667 198.616Z" fill="#D1495B"/><path d="M689.667 444.213 704.133 444.213 704.133 449.64 689.667 449.64Z" fill="#2E4057"/><path d="M689.667 455.08 704.133 455.08 704.133 455.56 689.667 455.56Z" fill="#2980B9"/><path d="M689.667 451.893 704.133 451.893 704.133 455.08 689.667 455.08Z" fill="#8E44AD"/><path d="M705.733 240.2 720.2 240.2 720.2 407.08 705.733 407.08Z" fill="#00798C"/><path d="M705.733 429.16 720.2 429.16 720.2 434.987 705.733 434.987Z" fill="#66A182"/><path d="M705.733 407.08 720.2 407.08 720.2 429.173 705.733 429.173Z" fill="#EDAE49"/><path d="M705.733 450.013 720.2 450.013 720.2 450.453 705.733 450.453Z" fill="#8D96A3"/><path d="M705.733 235.12 720.2 235.12 720.2 240.2 705.733 240.2Z" fill="#D1495B"/><path d="M705.733 434.987 720.2 434.987 720.2 450.013 705.733 450.013Z" fill="#2E4057"/><path d="M705.733 454.653 720.2 454.653 720.2 455.56 705.733 455.56Z" fill="#2980B9"/><path d="M705.733 450.453 720.2 450.453 720.2 454.64 705.733 454.64Z" fill="#8E44AD"/><path d="M721.8 212.013 736.267 212.013 736.267 399.787 721.8 399.787Z" fill="#00798C"/><path d="M721.8 427.88 736.267 427.88 736.267 433.96 721.8 433.96Z" fill="#66A182"/><path d="M721.8 399.787 736.267 399.787 736.267 427.88 721.8 427.88Z" fill="#EDAE49"/><path d="M721.8 445.84 736.267 445.84 736.267 447.307 721.8 447.307Z" fill="#8D96A3"/><path d="M721.8 210.107 736.267 210.107 736.267 212.013 721.8 212.013Z" fill="#D1495B"/><path d="M721.8 433.96 736.267 433.96 736.267 445.853 721.8 445.853Z" fill="#2E4057"/><path d="M721.8 454.187 736.267 454.187 736.267 455.56 721.8 455.56Z" fill="#2980B9"/><path d="M721.8 447.307 736.267 447.307 736.267 454.187 721.8 454.187Z" fill="#8E44AD"/><path d="M737.867 190.48 752.333 190.48 752.333 426.613 737.867 426.613Z" fill="#00798C"/><path d="M737.867 434.693 752.333 434.693 752.333 435.387 737.867 435.387Z" fill="#66A182"/><path d="M737.867 426.627 752.333 426.627 752.333 434.693 737.867 434.693Z" fill="#EDAE49"/><path d="M737.867 442.267 752.333 442.267 752.333 442.284 737.867 442.284Z" fill="#8D96A3"/><path d="M737.867 188.653 752.333 188.653 752.333 190.493 737.867 190.493Z" fill="#D1495B"/><path d="M737.867 435.387 752.333 435.387 752.333 442.267 737.867 442.267Z" fill="#2E4057"/><path d="M737.867 450.933 752.333 450.933 752.333 455.547 737.867 455.547Z" fill="#2980B9"/><path d="M737.867 442.28 752.333 442.28 752.333 450.933 737.867 450.933Z" fill="#8E44AD"/><path d="M753.933 219.84 768.4 219.84 768.4 241.373 753.933 241.373Z" fill="#00798C"/><path d="M753.933 250.28 768.4 250.28 768.4 303.453 753.933 303.453Z" fill="#66A182"/><path d="M753.933 241.373 768.4 241.373 768.4 250.28 753.933 250.28Z" fill="#EDAE49"/><path d="M753.933 303.48 768.4 303.48 768.4 364.6 753.933 364.6Z" fill="#8D96A3"/><path d="M753.933 219.8 768.4 219.8 768.4 219.832 753.933 219.832Z" fill="#D1495B"/><path d="M753.933 303.453 768.4 303.453 768.4 303.469 753.933 303.469Z" fill="#2E4057"/><path d="M753.933 368.12 768.4 368.12 768.4 455.547 753.933 455.547Z" fill="#2980B9"/><path d="M753.933 364.587 768.4 364.587 768.4 368.12 753.933 368.12Z" fill="#8E44AD"/><path d="M770 385.547 784.467 385.547 784.467 385.559 770 385.559Z" fill="#00798C"/><path d="M770 391.16 784.467 391.16 784.467 409.973 770 409.973Z" fill="#66A182"/><path d="M770 385.56 784.467 385.56 784.467 391.147 770 391.147Z" fill="#EDAE49"/><path d="M770 410 784.467 410 784.467 455.56 770 455.56Z" fill="#8D96A3"/><path d="M770 409.973 784.467 409.973 784.467 409.999 770 409.999Z" fill="#2E4057"/><path d="M786.067 331.453 800.533 331.453 800.533 378.267 786.067 378.267Z" fill="#00798C"/><path d="M786.067 406.493 800.533 406.493 800.533 416.987 786.067 416.987Z" fill="#66A182"/><path d="M786.067 378.267 800.533 378.267 800.533 406.48 786.067 406.48Z" fill="#EDAE49"/><path d="M786.067 423.853 800.533 423.853 800.533 450.093 786.067 450.093Z" fill="#8D96A3"/><path d="M786.067 324.907 800.533 324.907 800.533 331.453 786.067 331.453Z" fill="#D1495B"/><path d="M786.067 416.987 800.533 416.987 800.533 423.853 786.067 423.853Z" fill="#2E4057"/><path d="M786.067 452.667 800.533 452.667 800.533 455.56 786.067 455.56Z" fill="#2980B9"/><path d="M786.067 450.093 800.533 450.093 800.533 452.667 786.067 452.667Z" fill="#8E44AD"/></g><g clip-path="url(#clip6)"><text fill="#4D4D4D" font-family="Arial,Arial_MSFontService,sans-serif" font-weight="400" font-size="9" transform="matrix(1.33333 0 0 1.33333 362.067 460)">00<tspan font-size="9" x="-3" y="0">.</tspan><tspan font-size="9" x="-8.00002" y="0">0</tspan><tspan font-size="9" x="0" y="-51.75">25</tspan><tspan font-size="9" x="-3" y="-51.75">.</tspan><tspan font-size="9" x="-8.00002" y="-51.75">0</tspan><tspan font-size="9" x="0" y="-102.75">50</tspan><tspan font-size="9" x="-3" y="-102.75">.</tspan><tspan font-size="9" x="-8.00002" y="-102.75">0</tspan><tspan font-size="9" x="0" y="-154.5">75</tspan><tspan font-size="9" x="-3" y="-154.5">.</tspan><tspan font-size="9" x="-8.00002" y="-154.5">0</tspan><tspan font-size="9" x="0" y="-206.25">00</tspan><tspan font-size="9" x="-3" y="-206.25">.</tspan><tspan font-size="9" x="-8.00002" y="-206.25">1</tspan></text><path d="M378.32 455.56 381.973 455.56" stroke="#333333" stroke-width="1.42667" stroke-linejoin="round" stroke-miterlimit="10" fill="none"/><path d="M378.32 386.96 381.973 386.96" stroke="#333333" stroke-width="1.42667" stroke-linejoin="round" stroke-miterlimit="10" fill="none"/><path d="M378.32 318.36 381.973 318.36" stroke="#333333" stroke-width="1.42667" stroke-linejoin="round" stroke-miterlimit="10" fill="none"/><path d="M378.32 249.76 381.973 249.76" stroke="#333333" stroke-width="1.42667" stroke-linejoin="round" stroke-miterlimit="10" fill="none"/><path d="M378.32 181.16 381.973 181.16" stroke="#333333" stroke-width="1.42667" stroke-linejoin="round" stroke-miterlimit="10" fill="none"/><text fill="#4D4D4D" font-family="Arial,Arial_MSFontService,sans-serif" font-weight="400" font-size="9" transform="matrix(0.942809 -0.942809 0.942809 0.942809 388.132 491)">10<tspan font-size="9" x="-5.65164" y="-0.348336">S</tspan><tspan font-size="9" x="-10.8033" y="-0.196689">_</tspan><tspan font-size="9" x="-15.9549" y="-0.0450411">k</tspan><tspan font-size="9" x="-25.7279" y="-0.272076">10</tspan><tspan font-size="9" x="9.55097" y="8.49031">11</tspan><tspan font-size="9" x="3.36899" y="8.67229">S</tspan><tspan font-size="9" x="-1.25233" y="8.29361">_</tspan><tspan font-size="9" x="-6.40398" y="8.44526">k</tspan><tspan font-size="9" x="-15.1466" y="8.18791">11</tspan><tspan font-size="9" x="17.0413" y="17.0413">12</tspan><tspan font-size="9" x="11.3896" y="16.6929">S</tspan><tspan font-size="9" x="6.23798" y="16.8446">_</tspan><tspan font-size="9" x="1.08633" y="16.9962">k</tspan><tspan font-size="9" x="-8.68665" y="16.7692">12</tspan><tspan font-size="9" x="25.5619" y="25.5619">13</tspan><tspan font-size="9" x="19.9103" y="25.2136">S</tspan><tspan font-size="9" x="14.7586" y="25.3652">_</tspan><tspan font-size="9" x="9.60697" y="25.5169">k</tspan><tspan font-size="9" x="-0.166003" y="25.2898">13</tspan><tspan font-size="9" x="34.0826" y="34.0826">14</tspan><tspan font-size="9" x="28.4309" y="33.7342">S</tspan><tspan font-size="9" x="23.2793" y="33.8859">_</tspan><tspan font-size="9" x="18.1276" y="34.0375">k</tspan><tspan font-size="9" x="8.35462" y="33.8105">14</tspan><tspan font-size="9" x="42.6032" y="42.6032">15</tspan><tspan font-size="9" x="36.9515" y="42.2548">S</tspan><tspan font-size="9" x="31.7999" y="42.4065">_</tspan><tspan font-size="9" x="26.6482" y="42.5581">k</tspan><tspan font-size="9" x="16.8753" y="42.3311">15</tspan><tspan font-size="9" x="51.1238" y="51.1238">16</tspan><tspan font-size="9" x="45.4722" y="50.7755">S</tspan><tspan font-size="9" x="40.3205" y="50.9271">_</tspan><tspan font-size="9" x="35.1689" y="51.0788">k</tspan><tspan font-size="9" x="25.3959" y="50.8517">16</tspan><tspan font-size="9" x="59.6445" y="59.6445">17</tspan><tspan font-size="9" x="53.9928" y="59.2961">S</tspan><tspan font-size="9" x="48.8412" y="59.4478">_</tspan><tspan font-size="9" x="43.6895" y="59.5994">k</tspan><tspan font-size="9" x="33.9165" y="59.3724">17</tspan><tspan font-size="9" x="68.1651" y="68.1651">18</tspan><tspan font-size="9" x="62.5135" y="67.8167">S</tspan><tspan font-size="9" x="57.3618" y="67.9684">_</tspan><tspan font-size="9" x="52.2101" y="68.12">k</tspan><tspan font-size="9" x="42.4372" y="67.893">18</tspan><tspan font-size="9" x="76.6857" y="76.6857">19</tspan><tspan font-size="9" x="71.0341" y="76.3374">S</tspan><tspan font-size="9" x="65.8824" y="76.489">_</tspan><tspan font-size="9" x="60.7308" y="76.6407">k</tspan><tspan font-size="9" x="50.9578" y="76.4137">19</tspan><tspan font-size="9" x="90.358" y="85.0547">1</tspan><tspan font-size="9" x="84.176" y="85.2367">S</tspan><tspan font-size="9" x="79.5547" y="84.858">_</tspan><tspan font-size="9" x="74.4031" y="85.0097">k</tspan><tspan font-size="9" x="69.2514" y="85.1613">1</tspan><tspan font-size="9" x="93.727" y="93.727">20</tspan><tspan font-size="9" x="88.0753" y="93.3786">S</tspan><tspan font-size="9" x="82.9237" y="93.5303">_</tspan><tspan font-size="9" x="77.772" y="93.6819">k</tspan><tspan font-size="9" x="67.9991" y="93.4549">20</tspan><tspan font-size="9" x="102.248" y="102.248">21</tspan><tspan font-size="9" x="96.596" y="101.899">S</tspan><tspan font-size="9" x="91.4444" y="102.051">_</tspan><tspan font-size="9" x="86.2927" y="102.203">k</tspan><tspan font-size="9" x="76.5197" y="101.976">21</tspan><tspan font-size="9" x="110.768" y="110.768">22</tspan><tspan font-size="9" x="105.117" y="110.42">S</tspan><tspan font-size="9" x="99.965" y="110.572">_</tspan><tspan font-size="9" x="94.8133" y="110.723">k</tspan><tspan font-size="9" x="85.0404" y="110.496">22</tspan><tspan font-size="9" x="119.289" y="119.289">23</tspan><tspan font-size="9" x="113.637" y="118.941">S</tspan><tspan font-size="9" x="108.486" y="119.092">_</tspan><tspan font-size="9" x="103.334" y="119.244">k</tspan><tspan font-size="9" x="93.561" y="119.017">23</tspan><tspan font-size="9" x="132.961" y="127.658">2</tspan><tspan font-size="9" x="126.779" y="127.84">S</tspan><tspan font-size="9" x="122.158" y="127.461">_</tspan><tspan font-size="9" x="117.006" y="127.613">k</tspan><tspan font-size="9" x="111.855" y="127.764">2</tspan><tspan font-size="9" x="141.482" y="136.179">3</tspan><tspan font-size="9" x="135.3" y="136.361">S</tspan><tspan font-size="9" x="130.679" y="135.982">_</tspan><tspan font-size="9" x="125.527" y="136.133">k</tspan><tspan font-size="9" x="120.375" y="136.285">3</tspan><tspan font-size="9" x="150.002" y="144.699">4</tspan><tspan font-size="9" x="143.82" y="144.881">S</tspan><tspan font-size="9" x="139.199" y="144.502">_</tspan><tspan font-size="9" x="134.048" y="144.654">k</tspan><tspan font-size="9" x="128.896" y="144.806">4</tspan><tspan font-size="9" x="158.53" y="153.227">5</tspan><tspan font-size="9" x="152.348" y="153.409">S</tspan><tspan font-size="9" x="147.727" y="153.03">_</tspan><tspan font-size="9" x="142.575" y="153.182">k</tspan><tspan font-size="9" x="137.424" y="153.333">5</tspan><tspan font-size="9" x="167.051" y="161.748">6</tspan><tspan font-size="9" x="160.869" y="161.93">S</tspan><tspan font-size="9" x="156.248" y="161.551">_</tspan><tspan font-size="9" x="151.096" y="161.702">k</tspan><tspan font-size="9" x="145.944" y="161.854">6</tspan><tspan font-size="9" x="175.571" y="170.268">7</tspan><tspan font-size="9" x="169.389" y="170.45">S</tspan><tspan font-size="9" x="164.768" y="170.071">_</tspan><tspan font-size="9" x="159.617" y="170.223">k</tspan><tspan font-size="9" x="154.465" y="170.375">7</tspan><tspan font-size="9" x="184.092" y="178.789">8</tspan><tspan font-size="9" x="177.91" y="178.971">S</tspan><tspan font-size="9" x="173.289" y="178.592">_</tspan><tspan font-size="9" x="168.137" y="178.744">k</tspan><tspan font-size="9" x="162.986" y="178.895">8</tspan><tspan font-size="9" x="192.613" y="187.309">9</tspan><tspan font-size="9" x="186.431" y="187.491">S</tspan><tspan font-size="9" x="181.809" y="187.113">_</tspan><tspan font-size="9" x="176.658" y="187.264">k</tspan><tspan font-size="9" x="171.506" y="187.416">9</tspan><tspan font-size="9" x="195.982" y="195.982">88</tspan><tspan font-size="9" x="190.33" y="195.633">S</tspan><tspan font-size="9" x="185.178" y="195.785">_</tspan><tspan font-size="9" x="180.027" y="195.937">3</tspan><tspan font-size="9" x="157.89" y="196.074">water</tspan><tspan font-size="9" x="204.502" y="204.502">89</tspan><tspan font-size="9" x="198.851" y="204.154">S</tspan><tspan font-size="9" x="193.699" y="204.306">_</tspan><tspan font-size="9" x="188.547" y="204.457">4</tspan><tspan font-size="9" x="166.41" y="204.594">water</tspan><tspan font-size="9" x="213.023" y="213.023">24</tspan><tspan font-size="9" x="207.371" y="212.675">S</tspan><tspan font-size="9" x="202.22" y="212.826">_</tspan><tspan font-size="9" x="180.083" y="212.963">water</tspan></text><text font-family="Arial,Arial_MSFontService,sans-serif" font-weight="400" font-size="11" transform="matrix(1.33333 0 0 1.33333 569.12 542)">Sample</text><text font-family="Arial,Arial_MSFontService,sans-serif" font-weight="400" font-size="11" transform="matrix(8.16431e-17 -1.33333 1.33333 8.16431e-17 345.813 399)">Relative abundance <tspan font-size="11" x="97.5" y="-5.97015e-15">(%)</tspan></text><path d="M817.547 212.187 944.693 212.187 944.693 432.013 817.547 432.013Z" fill="#FFFFFF"/><text font-family="Arial,Arial_MSFontService,sans-serif" font-weight="400" font-size="11" transform="matrix(1.33333 0 0 1.33333 824.853 232)">Genus</text><path d="M824.853 240.4 847.893 240.4 847.893 263.44 824.853 263.44Z" fill="#F2F2F2"/><path d="M825.8 241.333 846.947 241.333 846.947 262.48 825.8 262.48Z" fill="#D1495B"/><path d="M824.853 263.44 847.893 263.44 847.893 286.48 824.853 286.48Z" fill="#F2F2F2"/><path d="M825.8 264.373 846.947 264.373 846.947 285.52 825.8 285.52Z" fill="#00798C"/><path d="M824.853 286.48 847.893 286.48 847.893 309.52 824.853 309.52Z" fill="#F2F2F2"/><path d="M825.8 287.413 846.947 287.413 846.947 308.56 825.8 308.56Z" fill="#EDAE49"/><path d="M824.853 309.52 847.893 309.52 847.893 332.56 824.853 332.56Z" fill="#F2F2F2"/><path d="M825.8 310.453 846.947 310.453 846.947 331.6 825.8 331.6Z" fill="#66A182"/><path d="M824.853 332.56 847.893 332.56 847.893 355.6 824.853 355.6Z" fill="#F2F2F2"/><path d="M825.8 333.493 846.947 333.493 846.947 354.64 825.8 354.64Z" fill="#2E4057"/><path d="M824.853 355.6 847.893 355.6 847.893 378.64 824.853 378.64Z" fill="#F2F2F2"/><path d="M825.8 356.533 846.947 356.533 846.947 377.68 825.8 377.68Z" fill="#8D96A3"/><path d="M824.853 378.64 847.893 378.64 847.893 401.68 824.853 401.68Z" fill="#F2F2F2"/><path d="M825.8 379.573 846.947 379.573 846.947 400.72 825.8 400.72Z" fill="#8E44AD"/><path d="M824.853 401.68 847.893 401.68 847.893 424.72 824.853 424.72Z" fill="#F2F2F2"/><path d="M825.8 402.613 846.947 402.613 846.947 423.76 825.8 423.76Z" fill="#2980B9"/><text font-family="Arial,Arial_MSFontService,sans-serif" font-weight="400" font-size="9" transform="matrix(1.33333 0 0 1.33333 855.2 256)">Acinetobacter<tspan font-size="9" x="0" y="17.25">Bifidobacterium</tspan><tspan font-size="9" x="0" y="34.5">Bradyrhizobium</tspan><tspan font-size="9" x="0" y="51.75">Cutibacterium</tspan><tspan font-size="9" x="0" y="69">Lactobacillus</tspan><tspan font-size="9" x="0" y="86.25">Sphingomonas</tspan><tspan font-size="9" x="0" y="103.5">Staphylococcus</tspan><tspan font-size="9" x="0" y="120.75">Streptococcus</tspan></text></g></g></g></g><path d="M753.5 176.5 753.5 469.387" stroke="#FF0000" stroke-width="1.33333" stroke-miterlimit="8" stroke-dasharray="5.33333 4" fill="none" fill-rule="evenodd"/><text font-family="Calibri,Calibri_MSFontService,sans-serif" font-weight="700" font-size="15" transform="translate(549.028 149)">Blood<tspan font-size="15" x="204.601" y="0">Contro</tspan><tspan font-size="15" x="246.267" y="0">l</tspan></text><path d="M382.5 171.5C382.5 167.358 383.06 164 383.75 164L566.25 164C566.94 164 567.5 160.642 567.5 156.5 567.5 160.642 568.06 164 568.75 164L751.25 164C751.94 164 752.5 167.358 752.5 171.5" stroke="#000000" stroke-miterlimit="8" fill="none" fill-rule="evenodd"/><path d="M754.5 171.5C754.5 167.634 755.022 164.5 755.667 164.5L777.333 164.5C777.978 164.5 778.5 161.366 778.5 157.5 778.5 161.366 779.022 164.5 779.667 164.5L801.333 164.5C801.978 164.5 802.5 167.634 802.5 171.5" stroke="#000000" stroke-miterlimit="8" fill="none" fill-rule="evenodd"/></g></svg>