<svg width="453" height="291" xmlns="http://www.w3.org/2000/svg" xmlns:xlink="http://www.w3.org/1999/xlink" overflow="hidden"><defs><clipPath id="clip0"><rect x="414" y="275" width="453" height="291"/></clipPath><clipPath id="clip1"><rect x="414" y="276" width="452" height="290"/></clipPath><clipPath id="clip2"><rect x="414" y="276" width="452" height="290"/></clipPath><clipPath id="clip3"><rect x="414" y="276" width="452" height="290"/></clipPath><clipPath id="clip4"><rect x="414" y="276" width="452" height="290"/></clipPath><clipPath id="clip5"><rect x="494" y="283" width="263" height="234"/></clipPath><clipPath id="clip6"><rect x="414" y="276" width="452" height="290"/></clipPath></defs><g clip-path="url(#clip0)" transform="translate(-414 -275)"><g clip-path="url(#clip1)"><g clip-path="url(#clip2)"><g clip-path="url(#clip3)"><path d="M414 276 866 276 866 566 414 566Z" fill="#FFFFFF"/><g clip-path="url(#clip4)"><path d="M414 276 866 276 866 566 414 566Z" stroke="#FFFFFF" stroke-width="1.42667" stroke-linecap="round" stroke-linejoin="round" stroke-miterlimit="10" fill="#FFFFFF"/></g><g clip-path="url(#clip5)"><path d="M494.893 283.307 756.907 283.307 756.907 516.813 494.893 516.813Z" fill="#EBEBEB"/><path d="M529.947 516.813 529.947 283.307" stroke="#FFFFFF" stroke-width="0.706667" stroke-linejoin="round" stroke-miterlimit="10" fill="none"/><path d="M576.24 516.813 576.24 283.307" stroke="#FFFFFF" stroke-width="0.706667" stroke-linejoin="round" stroke-miterlimit="10" fill="none"/><path d="M622.533 516.813 622.533 283.307" stroke="#FFFFFF" stroke-width="0.706667" stroke-linejoin="round" stroke-miterlimit="10" fill="none"/><path d="M668.827 516.813 668.827 283.307" stroke="#FFFFFF" stroke-width="0.706667" stroke-linejoin="round" stroke-miterlimit="10" fill="none"/><path d="M715.12 516.813 715.12 283.307" stroke="#FFFFFF" stroke-width="0.706667" stroke-linejoin="round" stroke-miterlimit="10" fill="none"/><path d="M494.893 511.84 756.907 511.84" stroke="#FFFFFF" stroke-width="1.42667" stroke-linejoin="round" stroke-miterlimit="10" fill="none"/><path d="M494.893 503.56 756.907 503.56" stroke="#FFFFFF" stroke-width="1.42667" stroke-linejoin="round" stroke-miterlimit="10" fill="none"/><path d="M494.893 495.28 756.907 495.28" stroke="#FFFFFF" stroke-width="1.42667" stroke-linejoin="round" stroke-miterlimit="10" fill="none"/><path d="M494.893 487 756.907 487" stroke="#FFFFFF" stroke-width="1.42667" stroke-linejoin="round" stroke-miterlimit="10" fill="none"/><path d="M494.893 478.72 756.907 478.72" stroke="#FFFFFF" stroke-width="1.42667" stroke-linejoin="round" stroke-miterlimit="10" fill="none"/><path d="M494.893 470.44 756.907 470.44" stroke="#FFFFFF" stroke-width="1.42667" stroke-linejoin="round" stroke-miterlimit="10" fill="none"/><path d="M494.893 462.16 756.907 462.16" stroke="#FFFFFF" stroke-width="1.42667" stroke-linejoin="round" stroke-miterlimit="10" fill="none"/><path d="M494.893 453.88 756.907 453.88" stroke="#FFFFFF" stroke-width="1.42667" stroke-linejoin="round" stroke-miterlimit="10" fill="none"/><path d="M494.893 445.6 756.907 445.6" stroke="#FFFFFF" stroke-width="1.42667" stroke-linejoin="round" stroke-miterlimit="10" fill="none"/><path d="M494.893 437.32 756.907 437.32" stroke="#FFFFFF" stroke-width="1.42667" stroke-linejoin="round" stroke-miterlimit="10" fill="none"/><path d="M494.893 429.04 756.907 429.04" stroke="#FFFFFF" stroke-width="1.42667" stroke-linejoin="round" stroke-miterlimit="10" fill="none"/><path d="M494.893 420.76 756.907 420.76" stroke="#FFFFFF" stroke-width="1.42667" stroke-linejoin="round" stroke-miterlimit="10" fill="none"/><path d="M494.893 412.48 756.907 412.48" stroke="#FFFFFF" stroke-width="1.42667" stroke-linejoin="round" stroke-miterlimit="10" fill="none"/><path d="M494.893 404.2 756.907 404.2" stroke="#FFFFFF" stroke-width="1.42667" stroke-linejoin="round" stroke-miterlimit="10" fill="none"/><path d="M494.893 395.92 756.907 395.92" stroke="#FFFFFF" stroke-width="1.42667" stroke-linejoin="round" stroke-miterlimit="10" fill="none"/><path d="M494.893 387.64 756.907 387.64" stroke="#FFFFFF" stroke-width="1.42667" stroke-linejoin="round" stroke-miterlimit="10" fill="none"/><path d="M494.893 379.36 756.907 379.36" stroke="#FFFFFF" stroke-width="1.42667" stroke-linejoin="round" stroke-miterlimit="10" fill="none"/><path d="M494.893 371.08 756.907 371.08" stroke="#FFFFFF" stroke-width="1.42667" stroke-linejoin="round" stroke-miterlimit="10" fill="none"/><path d="M494.893 362.8 756.907 362.8" stroke="#FFFFFF" stroke-width="1.42667" stroke-linejoin="round" stroke-miterlimit="10" fill="none"/><path d="M494.893 354.52 756.907 354.52" stroke="#FFFFFF" stroke-width="1.42667" stroke-linejoin="round" stroke-miterlimit="10" fill="none"/><path d="M494.893 346.24 756.907 346.24" stroke="#FFFFFF" stroke-width="1.42667" stroke-linejoin="round" stroke-miterlimit="10" fill="none"/><path d="M494.893 337.96 756.907 337.96" stroke="#FFFFFF" stroke-width="1.42667" stroke-linejoin="round" stroke-miterlimit="10" fill="none"/><path d="M494.893 329.68 756.907 329.68" stroke="#FFFFFF" stroke-width="1.42667" stroke-linejoin="round" stroke-miterlimit="10" fill="none"/><path d="M494.893 321.4 756.907 321.4" stroke="#FFFFFF" stroke-width="1.42667" stroke-linejoin="round" stroke-miterlimit="10" fill="none"/><path d="M494.893 313.12 756.907 313.12" stroke="#FFFFFF" stroke-width="1.42667" stroke-linejoin="round" stroke-miterlimit="10" fill="none"/><path d="M494.893 304.84 756.907 304.84" stroke="#FFFFFF" stroke-width="1.42667" stroke-linejoin="round" stroke-miterlimit="10" fill="none"/><path d="M494.893 296.56 756.907 296.56" stroke="#FFFFFF" stroke-width="1.42667" stroke-linejoin="round" stroke-miterlimit="10" fill="none"/><path d="M494.893 288.28 756.907 288.28" stroke="#FFFFFF" stroke-width="1.42667" stroke-linejoin="round" stroke-miterlimit="10" fill="none"/><path d="M506.8 516.813 506.8 283.307" stroke="#FFFFFF" stroke-width="1.42667" stroke-linejoin="round" stroke-miterlimit="10" fill="none"/><path d="M553.093 516.813 553.093 283.307" stroke="#FFFFFF" stroke-width="1.42667" stroke-linejoin="round" stroke-miterlimit="10" fill="none"/><path d="M599.387 516.813 599.387 283.307" stroke="#FFFFFF" stroke-width="1.42667" stroke-linejoin="round" stroke-miterlimit="10" fill="none"/><path d="M645.68 516.813 645.68 283.307" stroke="#FFFFFF" stroke-width="1.42667" stroke-linejoin="round" stroke-miterlimit="10" fill="none"/><path d="M691.973 516.813 691.973 283.307" stroke="#FFFFFF" stroke-width="1.42667" stroke-linejoin="round" stroke-miterlimit="10" fill="none"/><path d="M738.267 516.813 738.267 283.307" stroke="#FFFFFF" stroke-width="1.42667" stroke-linejoin="round" stroke-miterlimit="10" fill="none"/><path d="M506.8 475 527.973 475 527.973 482.453 506.8 482.453Z" fill="#00BFC4" fill-opacity="0.5"/><path d="M506.8 383.907 548.093 383.907 548.093 391.36 506.8 391.36Z" fill="#00BFC4" fill-opacity="0.5"/><path d="M506.8 309.387 571.347 309.387 571.347 316.84 506.8 316.84Z" fill="#00BFC4" fill-opacity="0.5"/><path d="M506.8 334.227 560.92 334.227 560.92 341.68 506.8 341.68Z" fill="#00BFC4" fill-opacity="0.5"/><path d="M506.8 292.827 727 292.827 727 300.28 506.8 300.28Z" fill="#00BFC4" fill-opacity="0.5"/><path d="M506.8 284.547 744.987 284.547 744.987 292 506.8 292Z" fill="#00BFC4" fill-opacity="0.5"/><path d="M506.8 301.107 652.867 301.107 652.867 308.56 506.8 308.56Z" fill="#00BFC4" fill-opacity="0.5"/><path d="M506.8 359.067 555.547 359.067 555.547 366.52 506.8 366.52Z" fill="#00BFC4" fill-opacity="0.5"/><path d="M506.8 342.507 558.907 342.507 558.907 349.96 506.8 349.96Z" fill="#00BFC4" fill-opacity="0.5"/><path d="M506.8 317.667 564.507 317.667 564.507 325.12 506.8 325.12Z" fill="#00BFC4" fill-opacity="0.5"/><path d="M506.8 400.467 540.707 400.467 540.707 407.92 506.8 407.92Z" fill="#00BFC4" fill-opacity="0.5"/><path d="M506.8 441.88 535.627 441.88 535.627 449.333 506.8 449.333Z" fill="#00BFC4" fill-opacity="0.5"/><path d="M506.8 483.28 519.573 483.28 519.573 490.733 506.8 490.733Z" fill="#00BFC4" fill-opacity="0.5"/><path d="M506.8 417.027 539.613 417.027 539.613 424.48 506.8 424.48Z" fill="#00BFC4" fill-opacity="0.5"/><path d="M506.8 325.947 562.533 325.947 562.533 333.4 506.8 333.4Z" fill="#00BFC4" fill-opacity="0.5"/><path d="M506.8 433.6 536.32 433.6 536.32 441.053 506.8 441.053Z" fill="#00BFC4" fill-opacity="0.5"/><path d="M506.8 367.347 555.173 367.347 555.173 374.8 506.8 374.8Z" fill="#00BFC4" fill-opacity="0.5"/><path d="M506.8 466.72 529.093 466.72 529.093 474.173 506.8 474.173Z" fill="#00BFC4" fill-opacity="0.5"/><path d="M506.8 375.627 551.12 375.627 551.12 383.08 506.8 383.08Z" fill="#00BFC4" fill-opacity="0.5"/><path d="M506.8 392.187 545.867 392.187 545.867 399.64 506.8 399.64Z" fill="#00BFC4" fill-opacity="0.5"/><path d="M506.8 408.747 540.64 408.747 540.64 416.2 506.8 416.2Z" fill="#00BFC4" fill-opacity="0.5"/><path d="M506.8 450.16 534.293 450.16 534.293 457.613 506.8 457.613Z" fill="#00BFC4" fill-opacity="0.5"/><path d="M506.8 499.84 517.92 499.84 517.92 507.293 506.8 507.293Z" fill="#00BFC4" fill-opacity="0.5"/><path d="M506.8 458.44 533.987 458.44 533.987 465.893 506.8 465.893Z" fill="#00BFC4" fill-opacity="0.5"/><path d="M506.8 350.787 556 350.787 556 358.24 506.8 358.24Z" fill="#00BFC4" fill-opacity="0.5"/><path d="M506.8 508.12 507.453 508.12 507.453 515.573 506.8 515.573Z" fill="#00BFC4" fill-opacity="0.5"/><path d="M506.8 491.56 519.213 491.56 519.213 499.013 506.8 499.013Z" fill="#00BFC4" fill-opacity="0.5"/><path d="M506.8 425.32 537.053 425.32 537.053 432.773 506.8 432.773Z" fill="#00BFC4" fill-opacity="0.5"/><path d="M506.8 475 520.88 475 520.88 482.453 506.8 482.453Z" fill="#F8766D" fill-opacity="0.5"/><path d="M506.8 383.907 533.853 383.907 533.853 391.36 506.8 391.36Z" fill="#F8766D" fill-opacity="0.5"/><path d="M506.8 309.387 549.44 309.387 549.44 316.84 506.8 316.84Z" fill="#F8766D" fill-opacity="0.5"/><path d="M506.8 334.227 542.92 334.227 542.92 341.68 506.8 341.68Z" fill="#F8766D" fill-opacity="0.5"/><path d="M506.8 292.827 657.733 292.827 657.733 300.28 506.8 300.28Z" fill="#F8766D" fill-opacity="0.5"/><path d="M506.8 284.547 667.467 284.547 667.467 292 506.8 292Z" fill="#F8766D" fill-opacity="0.5"/><path d="M506.8 301.107 607.24 301.107 607.24 308.56 506.8 308.56Z" fill="#F8766D" fill-opacity="0.5"/><path d="M506.8 359.067 540.827 359.067 540.827 366.52 506.8 366.52Z" fill="#F8766D" fill-opacity="0.5"/><path d="M506.8 342.507 541.733 342.507 541.733 349.96 506.8 349.96Z" fill="#F8766D" fill-opacity="0.5"/><path d="M506.8 317.667 546.067 317.667 546.067 325.12 506.8 325.12Z" fill="#F8766D" fill-opacity="0.5"/><path d="M506.8 400.467 529.2 400.467 529.2 407.92 506.8 407.92Z" fill="#F8766D" fill-opacity="0.5"/><path d="M506.8 441.88 524.133 441.88 524.133 449.333 506.8 449.333Z" fill="#F8766D" fill-opacity="0.5"/><path d="M506.8 483.28 515.827 483.28 515.827 490.733 506.8 490.733Z" fill="#F8766D" fill-opacity="0.5"/><path d="M506.8 417.027 528.68 417.027 528.68 424.48 506.8 424.48Z" fill="#F8766D" fill-opacity="0.5"/><path d="M506.8 325.947 542.72 325.947 542.72 333.4 506.8 333.4Z" fill="#F8766D" fill-opacity="0.5"/><path d="M506.8 433.6 526.36 433.6 526.36 441.053 506.8 441.053Z" fill="#F8766D" fill-opacity="0.5"/><path d="M506.8 367.347 539.36 367.347 539.36 374.8 506.8 374.8Z" fill="#F8766D" fill-opacity="0.5"/><path d="M506.8 466.72 521.933 466.72 521.933 474.173 506.8 474.173Z" fill="#F8766D" fill-opacity="0.5"/><path d="M506.8 375.627 537.493 375.627 537.493 383.08 506.8 383.08Z" fill="#F8766D" fill-opacity="0.5"/><path d="M506.8 392.187 532.6 392.187 532.6 399.64 506.8 399.64Z" fill="#F8766D" fill-opacity="0.5"/><path d="M506.8 408.747 529.8 408.747 529.8 416.2 506.8 416.2Z" fill="#F8766D" fill-opacity="0.5"/><path d="M506.8 450.16 525.227 450.16 525.227 457.613 506.8 457.613Z" fill="#F8766D" fill-opacity="0.5"/><path d="M506.8 499.84 514.453 499.84 514.453 507.293 506.8 507.293Z" fill="#F8766D" fill-opacity="0.5"/><path d="M506.8 458.44 506.855 458.44 506.855 465.893 506.8 465.893Z" fill="#F8766D" fill-opacity="0.5"/><path d="M506.8 350.787 538.64 350.787 538.64 358.24 506.8 358.24Z" fill="#F8766D" fill-opacity="0.5"/><path d="M506.8 508.12 507.147 508.12 507.147 515.573 506.8 515.573Z" fill="#F8766D" fill-opacity="0.5"/><path d="M506.8 491.56 514.813 491.56 514.813 499.013 506.8 499.013Z" fill="#F8766D" fill-opacity="0.5"/><path d="M506.8 425.32 528.667 425.32 528.667 432.773 506.8 432.773Z" fill="#F8766D" fill-opacity="0.5"/><path d="M511.427 516.813 511.427 283.307" stroke="#000000" stroke-width="1.42667" stroke-linejoin="round" stroke-miterlimit="10" stroke-dasharray="7.58667 7.58667" fill="none"/></g><g clip-path="url(#clip6)"><text fill="#4D4D4D" font-family="Arial,Arial_MSFontService,sans-serif" font-weight="400" font-size="6" transform="matrix(1.33333 0 0 1.33333 480.32 515)">56<tspan font-size="6" x="-4.00001" y="0">S</tspan><tspan font-size="6" x="-7.00001" y="0">_</tspan><tspan font-size="6" x="-10" y="0">2</tspan><tspan font-size="6" x="-24" y="0">water</tspan><tspan font-size="6" x="3" y="-6.75">9</tspan><tspan font-size="6" x="-1.00001" y="-6.75">S</tspan><tspan font-size="6" x="-4.00001" y="-6.75">_</tspan><tspan font-size="6" x="-7.00001" y="-6.75">k</tspan><tspan font-size="6" x="-10" y="-6.75">9</tspan><tspan font-size="6" x="0" y="-12.75">88</tspan><tspan font-size="6" x="-4.00001" y="-12.75">S</tspan><tspan font-size="6" x="-7.00001" y="-12.75">_</tspan><tspan font-size="6" x="-10" y="-12.75">3</tspan><tspan font-size="6" x="-24" y="-12.75">water</tspan><tspan font-size="6" x="0" y="-18.75">21</tspan><tspan font-size="6" x="-4.00001" y="-18.75">S</tspan><tspan font-size="6" x="-7.00001" y="-18.75">_</tspan><tspan font-size="6" x="-10" y="-18.75">k</tspan><tspan font-size="6" x="-16" y="-18.75">21</tspan><tspan font-size="6" x="0" y="-24.75">10</tspan><tspan font-size="6" x="-4.00001" y="-24.75">S</tspan><tspan font-size="6" x="-7.00001" y="-24.75">_</tspan><tspan font-size="6" x="-10" y="-24.75">k</tspan><tspan font-size="6" x="-16" y="-24.75">10</tspan><tspan font-size="6" x="3" y="-31.5">4</tspan><tspan font-size="6" x="-1.00001" y="-31.5">S</tspan><tspan font-size="6" x="-4.00001" y="-31.5">_</tspan><tspan font-size="6" x="-7.00001" y="-31.5">k</tspan><tspan font-size="6" x="-10" y="-31.5">4</tspan><tspan font-size="6" x="-14" y="-37.5">SIGMA</tspan><tspan font-size="6" x="-17" y="-37.5">_</tspan><tspan font-size="6" x="-31" y="-37.5">water</tspan><tspan font-size="6" x="3" y="-43.5">8</tspan><tspan font-size="6" x="-1.00001" y="-43.5">S</tspan><tspan font-size="6" x="-4.00001" y="-43.5">_</tspan><tspan font-size="6" x="-7.00001" y="-43.5">k</tspan><tspan font-size="6" x="-10" y="-43.5">8</tspan><tspan font-size="6" x="0" y="-50.25">20</tspan><tspan font-size="6" x="-4.00001" y="-50.25">S</tspan><tspan font-size="6" x="-7.00001" y="-50.25">_</tspan><tspan font-size="6" x="-10" y="-50.25">k</tspan><tspan font-size="6" x="-16" y="-50.25">20</tspan><tspan font-size="6" x="3" y="-56.25">2</tspan><tspan font-size="6" x="-1.00001" y="-56.25">S</tspan><tspan font-size="6" x="-4.00001" y="-56.25">_</tspan><tspan font-size="6" x="-7.00001" y="-56.25">k</tspan><tspan font-size="6" x="-10" y="-56.25">2</tspan><tspan font-size="6" x="0" y="-62.25">89</tspan><tspan font-size="6" x="-4.00001" y="-62.25">S</tspan><tspan font-size="6" x="-7.00001" y="-62.25">_</tspan><tspan font-size="6" x="-10" y="-62.25">4</tspan><tspan font-size="6" x="-24" y="-62.25">water</tspan><tspan font-size="6" x="0" y="-68.25">22</tspan><tspan font-size="6" x="-4.00001" y="-68.25">S</tspan><tspan font-size="6" x="-7.00001" y="-68.25">_</tspan><tspan font-size="6" x="-10" y="-68.25">k</tspan><tspan font-size="6" x="-16" y="-68.25">22</tspan><tspan font-size="6" x="3" y="-75">7</tspan><tspan font-size="6" x="-1.00001" y="-75">S</tspan><tspan font-size="6" x="-4.00001" y="-75">_</tspan><tspan font-size="6" x="-7.00001" y="-75">k</tspan><tspan font-size="6" x="-10" y="-75">7</tspan><tspan font-size="6" x="3" y="-81">1</tspan><tspan font-size="6" x="-1.00001" y="-81">S</tspan><tspan font-size="6" x="-4.00001" y="-81">_</tspan><tspan font-size="6" x="-7.00001" y="-81">k</tspan><tspan font-size="6" x="-10" y="-81">1</tspan><tspan font-size="6" x="3" y="-87">6</tspan><tspan font-size="6" x="-1.00001" y="-87">S</tspan><tspan font-size="6" x="-4.00001" y="-87">_</tspan><tspan font-size="6" x="-7.00001" y="-87">k</tspan><tspan font-size="6" x="-10" y="-87">6</tspan><tspan font-size="6" x="0" y="-93">11</tspan><tspan font-size="6" x="-4.00001" y="-93">S</tspan><tspan font-size="6" x="-7.00001" y="-93">_</tspan><tspan font-size="6" x="-10" y="-93">k</tspan><tspan font-size="6" x="-16" y="-93">11</tspan><tspan font-size="6" x="3" y="-99.75">5</tspan><tspan font-size="6" x="-1.00001" y="-99.75">S</tspan><tspan font-size="6" x="-4.00001" y="-99.75">_</tspan><tspan font-size="6" x="-7.00001" y="-99.75">k</tspan><tspan font-size="6" x="-10" y="-99.75">5</tspan><tspan font-size="6" x="3" y="-105.75">3</tspan><tspan font-size="6" x="-1.00001" y="-105.75">S</tspan><tspan font-size="6" x="-4.00001" y="-105.75">_</tspan><tspan font-size="6" x="-7.00001" y="-105.75">k</tspan><tspan font-size="6" x="-10" y="-105.75">3</tspan><tspan font-size="6" x="0" y="-111.75">17</tspan><tspan font-size="6" x="-4.00001" y="-111.75">S</tspan><tspan font-size="6" x="-7.00001" y="-111.75">_</tspan><tspan font-size="6" x="-10" y="-111.75">k</tspan><tspan font-size="6" x="-16" y="-111.75">17</tspan><tspan font-size="6" x="0" y="-118.5">24</tspan><tspan font-size="6" x="-4.00001" y="-118.5">S</tspan><tspan font-size="6" x="-7.00001" y="-118.5">_</tspan><tspan font-size="6" x="-21" y="-118.5">water</tspan><tspan font-size="6" x="0" y="-124.5">18</tspan><tspan font-size="6" x="-4.00001" y="-124.5">S</tspan><tspan font-size="6" x="-7.00001" y="-124.5">_</tspan><tspan font-size="6" x="-10" y="-124.5">k</tspan><tspan font-size="6" x="-16" y="-124.5">18</tspan><tspan font-size="6" x="0" y="-130.5">13</tspan><tspan font-size="6" x="-4.00001" y="-130.5">S</tspan><tspan font-size="6" x="-7.00001" y="-130.5">_</tspan><tspan font-size="6" x="-10" y="-130.5">k</tspan><tspan font-size="6" x="-16" y="-130.5">13</tspan><tspan font-size="6" x="0" y="-136.5">23</tspan><tspan font-size="6" x="-4.00001" y="-136.5">S</tspan><tspan font-size="6" x="-7.00001" y="-136.5">_</tspan><tspan font-size="6" x="-10" y="-136.5">k</tspan><tspan font-size="6" x="-16" y="-136.5">23</tspan><tspan font-size="6" x="0" y="-143.25">19</tspan><tspan font-size="6" x="-4.00001" y="-143.25">S</tspan><tspan font-size="6" x="-7.00001" y="-143.25">_</tspan><tspan font-size="6" x="-10" y="-143.25">k</tspan><tspan font-size="6" x="-16" y="-143.25">19</tspan><tspan font-size="6" x="0" y="-149.25">12</tspan><tspan font-size="6" x="-4.00001" y="-149.25">S</tspan><tspan font-size="6" x="-7.00001" y="-149.25">_</tspan><tspan font-size="6" x="-10" y="-149.25">k</tspan><tspan font-size="6" x="-16" y="-149.25">12</tspan><tspan font-size="6" x="0" y="-155.25">16</tspan><tspan font-size="6" x="-4.00001" y="-155.25">S</tspan><tspan font-size="6" x="-7.00001" y="-155.25">_</tspan><tspan font-size="6" x="-10" y="-155.25">k</tspan><tspan font-size="6" x="-16" y="-155.25">16</tspan><tspan font-size="6" x="0" y="-162">14</tspan><tspan font-size="6" x="-4.00001" y="-162">S</tspan><tspan font-size="6" x="-7.00001" y="-162">_</tspan><tspan font-size="6" x="-10" y="-162">k</tspan><tspan font-size="6" x="-16" y="-162">14</tspan><tspan font-size="6" x="0" y="-168">15</tspan><tspan font-size="6" x="-4.00001" y="-168">S</tspan><tspan font-size="6" x="-7.00001" y="-168">_</tspan><tspan font-size="6" x="-10" y="-168">k</tspan><tspan font-size="6" x="-16" y="-168">15</tspan></text><path d="M491.24 511.84 494.893 511.84" stroke="#333333" stroke-width="1.42667" stroke-linejoin="round" stroke-miterlimit="10" fill="none"/><path d="M491.24 503.56 494.893 503.56" stroke="#333333" stroke-width="1.42667" stroke-linejoin="round" stroke-miterlimit="10" fill="none"/><path d="M491.24 495.28 494.893 495.28" stroke="#333333" stroke-width="1.42667" stroke-linejoin="round" stroke-miterlimit="10" fill="none"/><path d="M491.24 487 494.893 487" stroke="#333333" stroke-width="1.42667" stroke-linejoin="round" stroke-miterlimit="10" fill="none"/><path d="M491.24 478.72 494.893 478.72" stroke="#333333" stroke-width="1.42667" stroke-linejoin="round" stroke-miterlimit="10" fill="none"/><path d="M491.24 470.44 494.893 470.44" stroke="#333333" stroke-width="1.42667" stroke-linejoin="round" stroke-miterlimit="10" fill="none"/><path d="M491.24 462.16 494.893 462.16" stroke="#333333" stroke-width="1.42667" stroke-linejoin="round" stroke-miterlimit="10" fill="none"/><path d="M491.24 453.88 494.893 453.88" stroke="#333333" stroke-width="1.42667" stroke-linejoin="round" stroke-miterlimit="10" fill="none"/><path d="M491.24 445.6 494.893 445.6" stroke="#333333" stroke-width="1.42667" stroke-linejoin="round" stroke-miterlimit="10" fill="none"/><path d="M491.24 437.32 494.893 437.32" stroke="#333333" stroke-width="1.42667" stroke-linejoin="round" stroke-miterlimit="10" fill="none"/><path d="M491.24 429.04 494.893 429.04" stroke="#333333" stroke-width="1.42667" stroke-linejoin="round" stroke-miterlimit="10" fill="none"/><path d="M491.24 420.76 494.893 420.76" stroke="#333333" stroke-width="1.42667" stroke-linejoin="round" stroke-miterlimit="10" fill="none"/><path d="M491.24 412.48 494.893 412.48" stroke="#333333" stroke-width="1.42667" stroke-linejoin="round" stroke-miterlimit="10" fill="none"/><path d="M491.24 404.2 494.893 404.2" stroke="#333333" stroke-width="1.42667" stroke-linejoin="round" stroke-miterlimit="10" fill="none"/><path d="M491.24 395.92 494.893 395.92" stroke="#333333" stroke-width="1.42667" stroke-linejoin="round" stroke-miterlimit="10" fill="none"/><path d="M491.24 387.64 494.893 387.64" stroke="#333333" stroke-width="1.42667" stroke-linejoin="round" stroke-miterlimit="10" fill="none"/><path d="M491.24 379.36 494.893 379.36" stroke="#333333" stroke-width="1.42667" stroke-linejoin="round" stroke-miterlimit="10" fill="none"/><path d="M491.24 371.08 494.893 371.08" stroke="#333333" stroke-width="1.42667" stroke-linejoin="round" stroke-miterlimit="10" fill="none"/><path d="M491.24 362.8 494.893 362.8" stroke="#333333" stroke-width="1.42667" stroke-linejoin="round" stroke-miterlimit="10" fill="none"/><path d="M491.24 354.52 494.893 354.52" stroke="#333333" stroke-width="1.42667" stroke-linejoin="round" stroke-miterlimit="10" fill="none"/><path d="M491.24 346.24 494.893 346.24" stroke="#333333" stroke-width="1.42667" stroke-linejoin="round" stroke-miterlimit="10" fill="none"/><path d="M491.24 337.96 494.893 337.96" stroke="#333333" stroke-width="1.42667" stroke-linejoin="round" stroke-miterlimit="10" fill="none"/><path d="M491.24 329.68 494.893 329.68" stroke="#333333" stroke-width="1.42667" stroke-linejoin="round" stroke-miterlimit="10" fill="none"/><path d="M491.24 321.4 494.893 321.4" stroke="#333333" stroke-width="1.42667" stroke-linejoin="round" stroke-miterlimit="10" fill="none"/><path d="M491.24 313.12 494.893 313.12" stroke="#333333" stroke-width="1.42667" stroke-linejoin="round" stroke-miterlimit="10" fill="none"/><path d="M491.24 304.84 494.893 304.84" stroke="#333333" stroke-width="1.42667" stroke-linejoin="round" stroke-miterlimit="10" fill="none"/><path d="M491.24 296.56 494.893 296.56" stroke="#333333" stroke-width="1.42667" stroke-linejoin="round" stroke-miterlimit="10" fill="none"/><path d="M491.24 288.28 494.893 288.28" stroke="#333333" stroke-width="1.42667" stroke-linejoin="round" stroke-miterlimit="10" fill="none"/><path d="M506.8 520.467 506.8 516.813" stroke="#333333" stroke-width="1.42667" stroke-linejoin="round" stroke-miterlimit="10" fill="none"/><path d="M553.093 520.467 553.093 516.813" stroke="#333333" stroke-width="1.42667" stroke-linejoin="round" stroke-miterlimit="10" fill="none"/><path d="M599.387 520.467 599.387 516.813" stroke="#333333" stroke-width="1.42667" stroke-linejoin="round" stroke-miterlimit="10" fill="none"/><path d="M645.68 520.467 645.68 516.813" stroke="#333333" stroke-width="1.42667" stroke-linejoin="round" stroke-miterlimit="10" fill="none"/><path d="M691.973 520.467 691.973 516.813" stroke="#333333" stroke-width="1.42667" stroke-linejoin="round" stroke-miterlimit="10" fill="none"/><path d="M738.267 520.467 738.267 516.813" stroke="#333333" stroke-width="1.42667" stroke-linejoin="round" stroke-miterlimit="10" fill="none"/><text fill="#4D4D4D" font-family="Arial,Arial_MSFontService,sans-serif" font-weight="400" font-size="9" transform="matrix(1.33333 0 0 1.33333 503.467 532)">0<tspan font-size="9" x="29.72" y="0">100</tspan><tspan font-size="9" x="64.44" y="0">200</tspan><tspan font-size="9" x="99.16" y="0">300</tspan><tspan font-size="9" x="133.88" y="0">400</tspan><tspan font-size="9" x="168.6" y="0">500</tspan><tspan fill="#000000" font-size="11" x="47.48" y="15.75">Read count </tspan><tspan fill="#000000" font-size="11" x="105.48" y="15.75">(</tspan><tspan fill="#000000" font-size="11" x="109.48" y="15.75">x</tspan><tspan fill="#000000" font-size="11" x="115.99" y="15.75">10</tspan><tspan fill="#000000" font-size="8" x="128.23" y="9.75">3</tspan><tspan fill="#000000" font-size="11" x="132.5" y="15.75">)</tspan></text><text font-family="Arial,Arial_MSFontService,sans-serif" font-weight="400" font-size="11" transform="matrix(8.16431e-17 -1.33333 1.33333 8.16431e-17 431.813 443)">Sample name</text><path d="M771.52 359.267 858.693 359.267 858.693 440.853 771.52 440.853Z" fill="#FFFFFF"/><text font-family="Arial,Arial_MSFontService,sans-serif" font-weight="400" font-size="11" transform="matrix(1.33333 0 0 1.33333 778.827 379)">Processing</text><path d="M778.827 387.467 801.867 387.467 801.867 410.507 778.827 410.507Z" fill="#F2F2F2"/><path d="M779.76 388.413 800.907 388.413 800.907 409.56 779.76 409.56Z" fill="#F8766D" fill-opacity="0.5"/><path d="M778.827 410.507 801.867 410.507 801.867 433.547 778.827 433.547Z" fill="#F2F2F2"/><path d="M779.76 411.453 800.907 411.453 800.907 432.6 779.76 432.6Z" fill="#00BFC4" fill-opacity="0.5"/><text font-family="Arial,Arial_MSFontService,sans-serif" font-weight="400" font-size="9" transform="matrix(1.33333 0 0 1.33333 809.173 403)">After<tspan font-size="9" x="0" y="17.25">Before</tspan></text></g></g></g></g><rect x="437.5" y="457.5" width="53" height="9" stroke="#C00000" stroke-width="1.33333" stroke-miterlimit="8" fill="none"/><rect x="447.5" y="507.5" width="43" height="9" stroke="#C00000" stroke-width="1.33333" stroke-miterlimit="8" fill="none"/></g></svg>